# xmcd
#
# Track frame offsets:
#	150
#	19465
#	37951
#	58432
#	76586
#	94230
#	117745
#	140380
#	154040
#	170391
#	189760
#
# Disc length: 2811 seconds
#
# Revision: 1
# Processed by: cddbd v1.5.2PL0 Copyright (c) Steve Scherf et al.
# Submitted via: EZCDAudioConverter 1.3.4.1
#
DISCID=8c0af90b
DTITLE=Aneta Langerová - Jsem
DYEAR=2009
DGENRE=Blues
TTITLE0=V bezvětří
TTITLE1=Jsem
TTITLE2=Amor
TTITLE3=Jedináček
TTITLE4=Pokušeni
TTITLE5=Už víš
TTITLE6=Motýl
TTITLE7=stačilo říct
TTITLE8=Dokola
TTITLE9=Den
TTITLE10=Vzpomínka
EXTD=
EXTT0=
EXTT1=
EXTT2=
EXTT3=
EXTT4=
EXTT5=
EXTT6=
EXTT7=
EXTT8=
EXTT9=
EXTT10=
PLAYORDER=
